<svg xmlns="http://www.w3.org/2000/svg" width="430" height="430" style="width:100%;height:100%;transform:translate3d(0,0,0);content-visibility:visible" viewBox="0 0 430 430"><defs><clipPath id="a"><path d="M0 0h430v430H0z"/></clipPath><clipPath id="b"><path d="M0 0h430v430H0z"/></clipPath><clipPath id="c"><path d="M0 0h500v500H0z"/></clipPath></defs><g clip-path="url(#a)"><g clip-path="url(#b)" style="display:block"><g style="display:block"><path fill="#B26836" d="M294.453 255.333c0 66.156-53.63 119.786-119.786 119.786S54.881 321.489 54.881 255.333c0-57.636 40.705-105.764 94.936-117.205a120.309 120.309 0 0 1 24.85-2.581c24.239 0 46.796 7.2 65.65 19.577a120.386 120.386 0 0 1 38.586 41.145c9.898 17.43 15.55 37.587 15.55 59.064z" class="primary"/><path fill="#B26836" fill-opacity=".5" d="M119.786 0c0 66.156-53.63 119.786-119.786 119.786S-119.786 66.156-119.786 0c0-57.636 40.705-105.764 94.936-117.205A120.309 120.309 0 0 1 0-119.786c24.239 0 46.796 7.2 65.65 19.577a120.386 120.386 0 0 1 38.586 41.145c9.898 17.43 15.55 37.587 15.55 59.064z" class="primary" style="mix-blend-mode:multiply" transform="translate(174.667 255.333)"/><path fill="none" stroke="#B26836" stroke-width="7" d="M294.453 255.333c0 66.156-53.63 119.786-119.786 119.786S54.881 321.489 54.881 255.333c0-57.636 40.705-105.764 94.936-117.205a120.309 120.309 0 0 1 24.85-2.581c24.239 0 46.796 7.2 65.65 19.577a120.386 120.386 0 0 1 38.586 41.145c9.898 17.43 15.55 37.587 15.55 59.064z" class="primary"/><path fill="none" stroke="#B26836" stroke-opacity=".5" stroke-width="7" d="M119.786 0c0 66.156-53.63 119.786-119.786 119.786S-119.786 66.156-119.786 0c0-57.636 40.705-105.764 94.936-117.205A120.309 120.309 0 0 1 0-119.786c24.239 0 46.796 7.2 65.65 19.577a120.386 120.386 0 0 1 38.586 41.145c9.898 17.43 15.55 37.587 15.55 59.064z" class="primary" style="mix-blend-mode:multiply" transform="translate(174.667 255.333)"/><path fill="#3A3347" d="M161.948 235.134c0 11.12-9.014 20.134-20.134 20.134-11.12 0-20.134-9.014-20.134-20.134 0-11.12 9.014-20.134 20.134-20.134 11.12 0 20.134 9.014 20.134 20.134zm-.333 86.612c0 7.362-5.969 13.331-13.331 13.331-7.362 0-13.331-5.969-13.331-13.331 0-7.362 5.969-13.331 13.331-13.331 7.362 0 13.331 5.969 13.331 13.331zm93.403-66.413c0 7.362-5.969 13.331-13.331 13.331-7.362 0-13.331-5.969-13.331-13.331 0-7.362 5.969-13.331 13.331-13.331 7.362 0 13.331 5.969 13.331 13.331z" class="secondary"/></g><path fill="none" stroke="#EBE6EF" stroke-linecap="round" stroke-linejoin="round" stroke-width="12" d="M108.254 281.716s0 0 0 0M215 321.746s0 0 0 0m-6.963-133.433s0 0 0 0" class="tertiary" style="display:block"/><g style="display:block"><path fill="#B26836" d="M375.12 172.971c0 66.32-53.77 120.09-120.09 120.09s-120.09-53.77-120.09-120.09c0-58.2 41.41-106.74 96.38-117.74a46.518 46.518 0 0 0-3.46 17.66c0 25.8 20.91 46.71 46.7 46.71 11.05 0 21.21-3.84 29.2-10.26 2.72 13.46 14.62 23.6 28.89 23.6 12.35 0 22.94-7.6 27.32-18.38 9.65 17.29 15.15 37.21 15.15 58.41z" class="primary"/><path fill="none" d="M120.09-1.175c0 66.32-53.77 120.09-120.09 120.09s-120.09-53.77-120.09-120.09c0-58.2 41.41-106.74 96.38-117.74a46.518 46.518 0 0 0-3.46 17.66c0 25.8 20.91 46.71 46.7 46.71 11.05 0 21.21-3.84 29.2-10.26 2.72 13.46 14.62 23.6 28.89 23.6 12.35 0 22.94-7.6 27.32-18.38 9.65 17.29 15.15 37.21 15.15 58.41z" class="primary" style="mix-blend-mode:multiply" transform="translate(255.03 174.146)"/><path fill="#3A3347" d="M219.887 145.84c0 8.719-7.068 15.787-15.787 15.787-8.719 0-15.787-7.068-15.787-15.787 0-8.719 7.068-15.787 15.787-15.787 8.719 0 15.787 7.068 15.787 15.787zm115.212 29.13c0 7.362-5.969 13.331-13.331 13.331-7.362 0-13.331-5.969-13.331-13.331 0-7.362 5.969-13.331 13.331-13.331 7.362 0 13.331 5.969 13.331 13.331zm-80.081 66.717c0 7.362-5.969 13.331-13.331 13.331-7.362 0-13.331-5.969-13.331-13.331 0-7.362 5.969-13.331 13.331-13.331 7.362 0 13.331 5.969 13.331 13.331z" class="secondary"/></g><g fill="none" style="display:block"><path stroke="#B26836" stroke-linecap="round" stroke-linejoin="round" stroke-width="7" d="M375.12 172.971c0 66.32-53.77 120.09-120.09 120.09s-120.09-53.77-120.09-120.09c0-58.2 41.41-106.74 96.38-117.74a46.518 46.518 0 0 0-3.46 17.66c0 25.8 20.91 46.71 46.7 46.71 11.05 0 21.21-3.84 29.2-10.26 2.72 13.46 14.62 23.6 28.89 23.6 12.35 0 22.94-7.6 27.32-18.38 9.65 17.29 15.15 37.21 15.15 58.41z" class="primary"/><path d="M120.09-1.175c0 66.32-53.77 120.09-120.09 120.09s-120.09-53.77-120.09-120.09c0-58.2 41.41-106.74 96.38-117.74a46.518 46.518 0 0 0-3.46 17.66c0 25.8 20.91 46.71 46.7 46.71 11.05 0 21.21-3.84 29.2-10.26 2.72 13.46 14.62 23.6 28.89 23.6 12.35 0 22.94-7.6 27.32-18.38 9.65 17.29 15.15 37.21 15.15 58.41z" class="primary" style="mix-blend-mode:multiply" transform="translate(255.03 174.146)"/><path stroke="#EBE6EF" stroke-linecap="round" stroke-linejoin="round" stroke-width="12" d="M201.657 201.657s0 0 0 0m66.716-26.687s0 0 0 0m40.952 53.652s0 0 0 0" class="tertiary"/></g><g style="display:none"><path class="primary"/><path class="primary" style="mix-blend-mode:multiply"/><path fill="none" class="primary"/><path fill="none" class="primary" style="mix-blend-mode:multiply"/><path class="secondary"/><path class="secondary"/><path class="secondary"/></g><g fill="none" style="display:none"><path class="tertiary"/><path class="tertiary"/><path class="tertiary"/></g><g fill="none" clip-path="url(#c)" style="display:none"><path class="primary" style="display:none"/><path class="primary" style="display:none"/><path class="primary" style="display:none"/><path class="primary" style="display:none"/><path class="primary" style="display:none"/></g></g></g></svg>